<mxfile host="app.diagrams.net" agent="Mozilla/5.0 (Windows NT 10.0; Win64; x64) AppleWebKit/537.36 (KHTML, like Gecko) Chrome/134.0.0.0 Safari/537.36" version="26.2.5">
  <diagram name="Page-1" id="gMSkO10uDKRmpPjG8uIo">
    <mxGraphModel dx="931" dy="345" grid="1" gridSize="10" guides="1" tooltips="1" connect="1" arrows="1" fold="1" page="1" pageScale="1" pageWidth="850" pageHeight="1100" math="0" shadow="0">
      <root>
        <mxCell id="0" />
        <mxCell id="1" parent="0" />
        <mxCell id="b96hWsffFKzJGg2DkAKu-9" value="No" style="edgeStyle=orthogonalEdgeStyle;rounded=0;orthogonalLoop=1;jettySize=auto;html=1;entryX=0;entryY=0.5;entryDx=0;entryDy=0;" edge="1" parent="1" source="b96hWsffFKzJGg2DkAKu-5" target="b96hWsffFKzJGg2DkAKu-8">
          <mxGeometry relative="1" as="geometry" />
        </mxCell>
        <mxCell id="b96hWsffFKzJGg2DkAKu-10" value="Yes" style="edgeStyle=orthogonalEdgeStyle;rounded=0;orthogonalLoop=1;jettySize=auto;html=1;entryX=0.5;entryY=0;entryDx=0;entryDy=0;" edge="1" parent="1" source="b96hWsffFKzJGg2DkAKu-5" target="b96hWsffFKzJGg2DkAKu-6">
          <mxGeometry relative="1" as="geometry" />
        </mxCell>
        <mxCell id="b96hWsffFKzJGg2DkAKu-5" value="1. Attends ANC?" style="rounded=1;whiteSpace=wrap;html=1;" vertex="1" parent="1">
          <mxGeometry x="250" y="50" width="120" height="60" as="geometry" />
        </mxCell>
        <mxCell id="b96hWsffFKzJGg2DkAKu-11" value="Yes" style="edgeStyle=orthogonalEdgeStyle;rounded=0;orthogonalLoop=1;jettySize=auto;html=1;entryX=0.5;entryY=0;entryDx=0;entryDy=0;" edge="1" parent="1" source="b96hWsffFKzJGg2DkAKu-6" target="b96hWsffFKzJGg2DkAKu-7">
          <mxGeometry relative="1" as="geometry" />
        </mxCell>
        <mxCell id="b96hWsffFKzJGg2DkAKu-12" value="No" style="edgeStyle=orthogonalEdgeStyle;rounded=0;orthogonalLoop=1;jettySize=auto;html=1;entryX=0;entryY=0.75;entryDx=0;entryDy=0;" edge="1" parent="1" source="b96hWsffFKzJGg2DkAKu-6" target="b96hWsffFKzJGg2DkAKu-8">
          <mxGeometry relative="1" as="geometry" />
        </mxCell>
        <mxCell id="b96hWsffFKzJGg2DkAKu-6" value="2. Receives ultrasound?" style="rounded=1;whiteSpace=wrap;html=1;" vertex="1" parent="1">
          <mxGeometry x="250" y="170" width="120" height="60" as="geometry" />
        </mxCell>
        <mxCell id="b96hWsffFKzJGg2DkAKu-16" value="Standard" style="edgeStyle=orthogonalEdgeStyle;rounded=0;orthogonalLoop=1;jettySize=auto;html=1;exitX=1;exitY=0.25;exitDx=0;exitDy=0;entryX=0;entryY=0.5;entryDx=0;entryDy=0;" edge="1" parent="1" source="b96hWsffFKzJGg2DkAKu-7" target="b96hWsffFKzJGg2DkAKu-13">
          <mxGeometry relative="1" as="geometry" />
        </mxCell>
        <mxCell id="b96hWsffFKzJGg2DkAKu-17" value="AI-assisted" style="edgeStyle=orthogonalEdgeStyle;rounded=0;orthogonalLoop=1;jettySize=auto;html=1;exitX=1;exitY=0.75;exitDx=0;exitDy=0;entryX=0;entryY=0.5;entryDx=0;entryDy=0;" edge="1" parent="1" source="b96hWsffFKzJGg2DkAKu-7" target="b96hWsffFKzJGg2DkAKu-14">
          <mxGeometry relative="1" as="geometry" />
        </mxCell>
        <mxCell id="b96hWsffFKzJGg2DkAKu-7" value="3. Ultrasound type?" style="rounded=1;whiteSpace=wrap;html=1;" vertex="1" parent="1">
          <mxGeometry x="250" y="300" width="120" height="60" as="geometry" />
        </mxCell>
        <mxCell id="b96hWsffFKzJGg2DkAKu-20" style="edgeStyle=orthogonalEdgeStyle;rounded=0;orthogonalLoop=1;jettySize=auto;html=1;entryX=0;entryY=0.25;entryDx=0;entryDy=0;" edge="1" parent="1" source="b96hWsffFKzJGg2DkAKu-8" target="b96hWsffFKzJGg2DkAKu-19">
          <mxGeometry relative="1" as="geometry" />
        </mxCell>
        <mxCell id="b96hWsffFKzJGg2DkAKu-8" value="I. Record no ultrasound coverage" style="whiteSpace=wrap;html=1;aspect=fixed;fontStyle=1" vertex="1" parent="1">
          <mxGeometry x="480" y="70" width="80" height="80" as="geometry" />
        </mxCell>
        <mxCell id="b96hWsffFKzJGg2DkAKu-21" style="edgeStyle=orthogonalEdgeStyle;rounded=0;orthogonalLoop=1;jettySize=auto;html=1;entryX=0;entryY=0.5;entryDx=0;entryDy=0;" edge="1" parent="1" source="b96hWsffFKzJGg2DkAKu-13" target="b96hWsffFKzJGg2DkAKu-19">
          <mxGeometry relative="1" as="geometry" />
        </mxCell>
        <mxCell id="b96hWsffFKzJGg2DkAKu-13" value="II. Record standard ultrasound coverage" style="whiteSpace=wrap;html=1;aspect=fixed;fontStyle=1" vertex="1" parent="1">
          <mxGeometry x="480" y="190" width="80" height="80" as="geometry" />
        </mxCell>
        <mxCell id="b96hWsffFKzJGg2DkAKu-22" style="edgeStyle=orthogonalEdgeStyle;rounded=0;orthogonalLoop=1;jettySize=auto;html=1;entryX=0;entryY=0.75;entryDx=0;entryDy=0;" edge="1" parent="1" source="b96hWsffFKzJGg2DkAKu-14" target="b96hWsffFKzJGg2DkAKu-19">
          <mxGeometry relative="1" as="geometry" />
        </mxCell>
        <mxCell id="b96hWsffFKzJGg2DkAKu-14" value="III. Record AI-assisted ultrasound coverage" style="whiteSpace=wrap;html=1;aspect=fixed;fontStyle=1" vertex="1" parent="1">
          <mxGeometry x="480" y="310" width="80" height="80" as="geometry" />
        </mxCell>
        <mxCell id="b96hWsffFKzJGg2DkAKu-19" value="&lt;b&gt;IV. Estimate &quot;believed&quot; gestational age&lt;/b&gt;" style="rounded=0;whiteSpace=wrap;html=1;" vertex="1" parent="1">
          <mxGeometry x="640" y="145" width="100" height="170" as="geometry" />
        </mxCell>
      </root>
    </mxGraphModel>
  </diagram>
</mxfile>
